<svg width="34" height="35" viewBox="0 0 34 35" fill="none" xmlns="http://www.w3.org/2000/svg">
<path d="M32.75 16.609C32.756 18.9616 32.2164 21.2823 31.175 23.3822C29.9403 25.8985 28.0421 28.0149 25.693 29.4945C23.344 30.9741 20.6369 31.7584 17.875 31.7595C15.5652 31.7656 13.2867 31.216 11.225 30.1553L1.25 33.5419L4.575 23.3822C3.53363 21.2823 2.99398 18.9616 3 16.609C3.00107 13.7959 3.77107 11.0387 5.22376 8.64619C6.67645 6.25367 8.75445 4.32032 11.225 3.06271C13.2867 2.00206 15.5652 1.45241 17.875 1.45855H18.75C22.3976 1.66351 25.8428 3.23162 28.426 5.86262C31.0092 8.49363 32.5488 12.0026 32.75 15.7178V16.609Z" stroke="#046AB5" stroke-width="2" stroke-linecap="round" stroke-linejoin="round"/>
</svg>
