<svg width="38" height="38" viewBox="0 0 38 38" fill="none" xmlns="http://www.w3.org/2000/svg">
<path d="M36.4573 27.5889V32.8261C36.4593 33.3123 36.3597 33.7935 36.1649 34.239C35.9701 34.6844 35.6845 35.0843 35.3262 35.413C34.968 35.7417 34.545 35.9919 34.0844 36.1477C33.6239 36.3034 33.1358 36.3613 32.6516 36.3175C27.2797 35.7338 22.1197 33.8982 17.586 30.9581C13.368 28.2779 9.79193 24.7018 7.11165 20.4838C4.16133 15.9295 2.32529 10.7444 1.75227 5.34833C1.70864 4.86558 1.76602 4.37904 1.92073 3.91967C2.07545 3.46031 2.32412 3.03819 2.65091 2.6802C2.9777 2.32221 3.37545 2.03618 3.81884 1.84033C4.26223 1.64449 4.74155 1.54311 5.22626 1.54265H10.4634C11.3107 1.53431 12.132 1.83432 12.7744 2.38677C13.4167 2.93921 13.8363 3.70638 13.9549 4.5453C14.1759 6.22131 14.5859 7.86694 15.1769 9.45079C15.4118 10.0756 15.4626 10.7547 15.3234 11.4075C15.1842 12.0604 14.8607 12.6596 14.3913 13.1343L12.1743 15.3513C14.6594 19.7219 18.2781 23.3406 22.6486 25.8257L24.8657 23.6086C25.3403 23.1393 25.9396 22.8158 26.5924 22.6766C27.2453 22.5373 27.9243 22.5882 28.5492 22.8231C30.133 23.4141 31.7787 23.824 33.4547 24.0451C34.3027 24.1647 35.0771 24.5918 35.6308 25.2452C36.1844 25.8986 36.4786 26.7327 36.4573 27.5889Z" stroke="#046AB5" stroke-width="2" stroke-linecap="round" stroke-linejoin="round"/>
</svg>
