<?xml version="1.0" encoding="UTF-8"?>
<svg width="18px" height="12px" viewBox="0 0 18 12" version="1.1" xmlns="http://www.w3.org/2000/svg" xmlns:xlink="http://www.w3.org/1999/xlink">
    <!-- Generator: Sketch 50.2 (55047) - http://www.bohemiancoding.com/sketch -->
    <title>Icons/Others/flag_us</title>
    <desc>Created with Sketch.</desc>
    <defs></defs>
    <g id="Icons/Others/flag_us" stroke="none" stroke-width="1" fill="none" fill-rule="evenodd">
        <g id="Group">
            <path d="M1.517825,11.986575 L15.961075,11.986575 C16.551075,11.939825 17.053325,11.585575 17.308575,11.083825 L0.170325,11.083825 C0.425825,11.585575 0.928075,11.939825 1.517825,11.986575" id="Fill-1" fill="#ED5565"></path>
            <path d="M0,10.180925 L0,10.515175 C0.02225,10.717925 0.08175,10.909425 0.1705,11.083675 L17.3085,11.083675 C17.39725,10.909425 17.45675,10.717925 17.479,10.515175 L17.479,10.180925 L0,10.180925 Z" id="Fill-3" fill="#FFFFFF"></path>
            <polygon id="Fill-5" fill="#ED5565" points="0 10.180875 17.479 10.180875 17.479 9.278125 0 9.278125"></polygon>
            <polygon id="Fill-7" fill="#FFFFFF" points="0 9.278125 17.479 9.278125 17.479 8.375375 0 8.375375"></polygon>
            <polygon id="Fill-8" fill="#ED5565" points="0 8.375375 17.479 8.375375 17.479 7.472625 0 7.472625"></polygon>
            <polygon id="Fill-9" fill="#FFFFFF" points="0 7.472375 17.479 7.472375 17.479 6.569625 0 6.569625"></polygon>
            <polygon id="Fill-10" fill="#ED5565" points="0 6.569625 17.479 6.569625 17.479 5.667125 0 5.667125"></polygon>
            <polygon id="Fill-11" fill="#FFFFFF" points="0 5.667125 17.479 5.667125 17.479 4.764375 0 4.764375"></polygon>
            <polygon id="Fill-12" fill="#ED5565" points="0 4.764125 17.479 4.764125 17.479 3.861375 0 3.861375"></polygon>
            <polygon id="Fill-13" fill="#FFFFFF" points="0 3.861375 17.479 3.861375 17.479 2.958625 0 2.958625"></polygon>
            <polygon id="Fill-14" fill="#ED5565" points="0 2.958625 17.479 2.958625 17.479 2.055875 0 2.055875"></polygon>
            <path d="M17.479,2.055675 L17.479,1.721425 C17.45675,1.518675 17.39725,1.327175 17.3085,1.152925 L0.1705,1.152925 C0.08175,1.327175 0.02225,1.518675 0,1.721425 L0,2.055675 L17.479,2.055675 Z" id="Fill-15" fill="#FFFFFF"></path>
            <path d="M15.9612,0.25 L1.51795,0.25 C0.92795,0.29675 0.4257,0.651 0.17045,1.15275 L17.3087,1.15275 C17.0532,0.651 16.55095,0.29675 15.9612,0.25" id="Fill-16" fill="#ED5565"></path>
            <path d="M8.293225,6.5696 L8.293225,0.2501 L1.517725,0.2501 C0.723225,0.31285 0.086225,0.9336 -2.5e-05,1.72135 L-2.5e-05,6.5696 L8.293225,6.5696 Z" id="Fill-17" fill="#4A89DC"></path>
            <polygon id="Fill-18" fill="#FFFFFF" points="1.026625 1.01465 0.958625 1.22415 0.738375 1.22415 0.916625 1.3534 0.848375 1.56265 1.026625 1.4334 1.204625 1.56265 1.136625 1.3534 1.314625 1.22415 1.094375 1.22415"></polygon>
            <polygon id="Fill-19" fill="#FFFFFF" points="1.026625 2.0752 0.958625 2.2847 0.738375 2.2847 0.916625 2.41395 0.848375 2.6232 1.026625 2.49395 1.204625 2.6232 1.136625 2.41395 1.314625 2.2847 1.094375 2.2847"></polygon>
            <polygon id="Fill-20" fill="#FFFFFF" points="1.026625 3.13575 0.958625 3.34525 0.738375 3.34525 0.916625 3.4745 0.848375 3.68375 1.026625 3.5545 1.204625 3.68375 1.136625 3.4745 1.314625 3.34525 1.094375 3.34525"></polygon>
            <polygon id="Fill-21" fill="#FFFFFF" points="1.026625 4.1963 0.958625 4.4058 0.738375 4.4058 0.916625 4.53505 0.848375 4.7443 1.026625 4.61505 1.204625 4.7443 1.136625 4.53505 1.314625 4.4058 1.094375 4.4058"></polygon>
            <polygon id="Fill-22" fill="#FFFFFF" points="1.0945 5.466325 1.02675 5.256825 0.9585 5.466325 0.73825 5.466325 0.9165 5.595825 0.8485 5.804825 1.02675 5.675575 1.2045 5.804825 1.13675 5.595825 1.31475 5.466325"></polygon>
            <polygon id="Fill-23" fill="#FFFFFF" points="1.6504 1.544925 1.5824 1.754425 1.36215 1.754425 1.5404 1.883675 1.47215 2.092925 1.6504 1.963675 1.8284 2.092925 1.76015 1.883675 1.9384 1.754425 1.71815 1.754425"></polygon>
            <polygon id="Fill-24" fill="#FFFFFF" points="1.6504 2.605475 1.5824 2.814975 1.36215 2.814975 1.5404 2.944225 1.47215 3.153475 1.6504 3.024225 1.8284 3.153475 1.76015 2.944225 1.9384 2.814975 1.71815 2.814975"></polygon>
            <polygon id="Fill-25" fill="#FFFFFF" points="1.6504 3.666025 1.5824 3.875525 1.36215 3.875525 1.5404 4.004775 1.47215 4.214025 1.6504 4.084775 1.8284 4.214025 1.76015 4.004775 1.9384 3.875525 1.71815 3.875525"></polygon>
            <polygon id="Fill-26" fill="#FFFFFF" points="1.718275 4.93605 1.650525 4.72655 1.582275 4.93605 1.362025 4.93605 1.540275 5.06555 1.472275 5.27455 1.650525 5.1453 1.828275 5.27455 1.760275 5.06555 1.938525 4.93605"></polygon>
            <polygon id="Fill-27" fill="#FFFFFF" points="2.273925 1.01465 2.206175 1.22415 1.985925 1.22415 2.163925 1.3534 2.095925 1.56265 2.273925 1.4334 2.452175 1.56265 2.383925 1.3534 2.562175 1.22415 2.341925 1.22415"></polygon>
            <polygon id="Fill-28" fill="#FFFFFF" points="2.273925 2.0752 2.206175 2.2847 1.985925 2.2847 2.163925 2.41395 2.095925 2.6232 2.273925 2.49395 2.452175 2.6232 2.383925 2.41395 2.562175 2.2847 2.341925 2.2847"></polygon>
            <polygon id="Fill-29" fill="#FFFFFF" points="2.273925 3.13575 2.206175 3.34525 1.985925 3.34525 2.163925 3.4745 2.095925 3.68375 2.273925 3.5545 2.452175 3.68375 2.383925 3.4745 2.562175 3.34525 2.341925 3.34525"></polygon>
            <polygon id="Fill-30" fill="#FFFFFF" points="2.273925 4.1963 2.206175 4.4058 1.985925 4.4058 2.163925 4.53505 2.095925 4.7443 2.273925 4.61505 2.452175 4.7443 2.383925 4.53505 2.562175 4.4058 2.341925 4.4058"></polygon>
            <polygon id="Fill-31" fill="#FFFFFF" points="2.34205 5.466325 2.27405 5.256825 2.20605 5.466325 1.9858 5.466325 2.1638 5.595825 2.09605 5.804825 2.27405 5.675575 2.45205 5.804825 2.38405 5.595825 2.5623 5.466325"></polygon>
            <polygon id="Fill-32" fill="#FFFFFF" points="2.897725 1.544925 2.829725 1.754425 2.609475 1.754425 2.787725 1.883675 2.719475 2.092925 2.897725 1.963675 3.075725 2.092925 3.007725 1.883675 3.185725 1.754425 2.965725 1.754425"></polygon>
            <polygon id="Fill-33" fill="#FFFFFF" points="2.897725 2.605475 2.829725 2.814975 2.609475 2.814975 2.787725 2.944225 2.719475 3.153475 2.897725 3.024225 3.075725 3.153475 3.007725 2.944225 3.185725 2.814975 2.965725 2.814975"></polygon>
            <polygon id="Fill-34" fill="#FFFFFF" points="2.897725 3.666025 2.829725 3.875525 2.609475 3.875525 2.787725 4.004775 2.719475 4.214025 2.897725 4.084775 3.075725 4.214025 3.007725 4.004775 3.185725 3.875525 2.965725 3.875525"></polygon>
            <polygon id="Fill-35" fill="#FFFFFF" points="2.965575 4.93605 2.897825 4.72655 2.829575 4.93605 2.609325 4.93605 2.787575 5.06555 2.719575 5.27455 2.897825 5.1453 3.075575 5.27455 3.007825 5.06555 3.185825 4.93605"></polygon>
            <polygon id="Fill-36" fill="#FFFFFF" points="3.5215 1.01465 3.4535 1.22415 3.23325 1.22415 3.4115 1.3534 3.34325 1.56265 3.5215 1.4334 3.6995 1.56265 3.63125 1.3534 3.8095 1.22415 3.58925 1.22415"></polygon>
            <polygon id="Fill-37" fill="#FFFFFF" points="3.5215 2.0752 3.4535 2.2847 3.23325 2.2847 3.4115 2.41395 3.34325 2.6232 3.5215 2.49395 3.6995 2.6232 3.63125 2.41395 3.8095 2.2847 3.58925 2.2847"></polygon>
            <polygon id="Fill-38" fill="#FFFFFF" points="3.5215 3.13575 3.4535 3.34525 3.23325 3.34525 3.4115 3.4745 3.34325 3.68375 3.5215 3.5545 3.6995 3.68375 3.63125 3.4745 3.8095 3.34525 3.58925 3.34525"></polygon>
            <polygon id="Fill-39" fill="#FFFFFF" points="3.5215 4.1963 3.4535 4.4058 3.23325 4.4058 3.4115 4.53505 3.34325 4.7443 3.5215 4.61505 3.6995 4.7443 3.63125 4.53505 3.8095 4.4058 3.58925 4.4058"></polygon>
            <polygon id="Fill-40" fill="#FFFFFF" points="3.589375 5.466325 3.521625 5.256825 3.453375 5.466325 3.233125 5.466325 3.411375 5.595825 3.343375 5.804825 3.521625 5.675575 3.699375 5.804825 3.631375 5.595825 3.809625 5.466325"></polygon>
            <polygon id="Fill-41" fill="#FFFFFF" points="4.145025 1.544925 4.077275 1.754425 3.857025 1.754425 4.035025 1.883675 3.967025 2.092925 4.145025 1.963675 4.323275 2.092925 4.255025 1.883675 4.433275 1.754425 4.213025 1.754425"></polygon>
            <polygon id="Fill-42" fill="#FFFFFF" points="4.145025 2.605475 4.077275 2.814975 3.857025 2.814975 4.035025 2.944225 3.967025 3.153475 4.145025 3.024225 4.323275 3.153475 4.255025 2.944225 4.433275 2.814975 4.213025 2.814975"></polygon>
            <polygon id="Fill-43" fill="#FFFFFF" points="4.145025 3.666025 4.077275 3.875525 3.857025 3.875525 4.035025 4.004775 3.967025 4.214025 4.145025 4.084775 4.323275 4.214025 4.255025 4.004775 4.433275 3.875525 4.213025 3.875525"></polygon>
            <polygon id="Fill-44" fill="#FFFFFF" points="4.21315 4.93605 4.14515 4.72655 4.07715 4.93605 3.8569 4.93605 4.0349 5.06555 3.96715 5.27455 4.14515 5.1453 4.32315 5.27455 4.25515 5.06555 4.4334 4.93605"></polygon>
            <polygon id="Fill-45" fill="#FFFFFF" points="4.7688 1.01465 4.7008 1.22415 4.4808 1.22415 4.6588 1.3534 4.59055 1.56265 4.7688 1.4334 4.9468 1.56265 4.8788 1.3534 5.0568 1.22415 4.8368 1.22415"></polygon>
            <polygon id="Fill-46" fill="#FFFFFF" points="4.7688 2.0752 4.7008 2.2847 4.4808 2.2847 4.6588 2.41395 4.59055 2.6232 4.7688 2.49395 4.9468 2.6232 4.8788 2.41395 5.0568 2.2847 4.8368 2.2847"></polygon>
            <polygon id="Fill-47" fill="#FFFFFF" points="4.7688 3.13575 4.7008 3.34525 4.4808 3.34525 4.6588 3.4745 4.59055 3.68375 4.7688 3.5545 4.9468 3.68375 4.8788 3.4745 5.0568 3.34525 4.8368 3.34525"></polygon>
            <polygon id="Fill-48" fill="#FFFFFF" points="4.7688 4.1963 4.7008 4.4058 4.4808 4.4058 4.6588 4.53505 4.59055 4.7443 4.7688 4.61505 4.9468 4.7443 4.8788 4.53505 5.0568 4.4058 4.8368 4.4058"></polygon>
            <polygon id="Fill-49" fill="#FFFFFF" points="4.836925 5.466325 4.768925 5.256825 4.700675 5.466325 4.480675 5.466325 4.658675 5.595825 4.590675 5.804825 4.768925 5.675575 4.946675 5.804825 4.878925 5.595825 5.056925 5.466325"></polygon>
            <polygon id="Fill-50" fill="#FFFFFF" points="5.392575 1.544925 5.324575 1.754425 5.104325 1.754425 5.282575 1.883675 5.214325 2.092925 5.392575 1.963675 5.570575 2.092925 5.502575 1.883675 5.680575 1.754425 5.460325 1.754425"></polygon>
            <polygon id="Fill-51" fill="#FFFFFF" points="5.392575 2.605475 5.324575 2.814975 5.104325 2.814975 5.282575 2.944225 5.214325 3.153475 5.392575 3.024225 5.570575 3.153475 5.502575 2.944225 5.680575 2.814975 5.460325 2.814975"></polygon>
            <polygon id="Fill-52" fill="#FFFFFF" points="5.392575 3.666025 5.324575 3.875525 5.104325 3.875525 5.282575 4.004775 5.214325 4.214025 5.392575 4.084775 5.570575 4.214025 5.502575 4.004775 5.680575 3.875525 5.460325 3.875525"></polygon>
            <polygon id="Fill-53" fill="#FFFFFF" points="5.46045 4.93605 5.3927 4.72655 5.32445 4.93605 5.1042 4.93605 5.28245 5.06555 5.21445 5.27455 5.3927 5.1453 5.57045 5.27455 5.5027 5.06555 5.6807 4.93605"></polygon>
            <polygon id="Fill-54" fill="#FFFFFF" points="6.016125 1.01465 5.948375 1.22415 5.728125 1.22415 5.906125 1.3534 5.838125 1.56265 6.016125 1.4334 6.194375 1.56265 6.126125 1.3534 6.304375 1.22415 6.084125 1.22415"></polygon>
            <polygon id="Fill-55" fill="#FFFFFF" points="6.016125 2.0752 5.948375 2.2847 5.728125 2.2847 5.906125 2.41395 5.838125 2.6232 6.016125 2.49395 6.194375 2.6232 6.126125 2.41395 6.304375 2.2847 6.084125 2.2847"></polygon>
            <polygon id="Fill-56" fill="#FFFFFF" points="6.016125 3.13575 5.948375 3.34525 5.728125 3.34525 5.906125 3.4745 5.838125 3.68375 6.016125 3.5545 6.194375 3.68375 6.126125 3.4745 6.304375 3.34525 6.084125 3.34525"></polygon>
            <polygon id="Fill-57" fill="#FFFFFF" points="6.016125 4.1963 5.948375 4.4058 5.728125 4.4058 5.906125 4.53505 5.838125 4.7443 6.016125 4.61505 6.194375 4.7443 6.126125 4.53505 6.304375 4.4058 6.084125 4.4058"></polygon>
            <polygon id="Fill-58" fill="#FFFFFF" points="6.084225 5.466325 6.016225 5.256825 5.948225 5.466325 5.727975 5.466325 5.905975 5.595825 5.838225 5.804825 6.016225 5.675575 6.194225 5.804825 6.126225 5.595825 6.304475 5.466325"></polygon>
            <polygon id="Fill-59" fill="#FFFFFF" points="6.6399 1.544925 6.5719 1.754425 6.3519 1.754425 6.5299 1.883675 6.46165 2.092925 6.6399 1.963675 6.81815 2.092925 6.7499 1.883675 6.9279 1.754425 6.7079 1.754425"></polygon>
            <polygon id="Fill-60" fill="#FFFFFF" points="6.6399 2.605475 6.5719 2.814975 6.3519 2.814975 6.5299 2.944225 6.46165 3.153475 6.6399 3.024225 6.81815 3.153475 6.7499 2.944225 6.9279 2.814975 6.7079 2.814975"></polygon>
            <polygon id="Fill-61" fill="#FFFFFF" points="6.6399 3.666025 6.5719 3.875525 6.3519 3.875525 6.5299 4.004775 6.46165 4.214025 6.6399 4.084775 6.81815 4.214025 6.7499 4.004775 6.9279 3.875525 6.7079 3.875525"></polygon>
            <polygon id="Fill-62" fill="#FFFFFF" points="6.708025 4.93605 6.640025 4.72655 6.571775 4.93605 6.351775 4.93605 6.529775 5.06555 6.461775 5.27455 6.640025 5.1453 6.818025 5.27455 6.750025 5.06555 6.928025 4.93605"></polygon>
            <polygon id="Fill-63" fill="#FFFFFF" points="7.153575 1.353525 7.085575 1.562775 7.263575 1.433275 7.441575 1.562775 7.373825 1.353525 7.551825 1.224025 7.331575 1.224025 7.263575 1.014775 7.195575 1.224025 6.975325 1.224025"></polygon>
            <polygon id="Fill-64" fill="#FFFFFF" points="7.263675 2.0752 7.195675 2.2847 6.975425 2.2847 7.153675 2.41395 7.085425 2.6232 7.263675 2.49395 7.441675 2.6232 7.373675 2.41395 7.551675 2.2847 7.331425 2.2847"></polygon>
            <polygon id="Fill-65" fill="#FFFFFF" points="7.263675 3.13575 7.195675 3.34525 6.975425 3.34525 7.153675 3.4745 7.085425 3.68375 7.263675 3.5545 7.441675 3.68375 7.373675 3.4745 7.551675 3.34525 7.331425 3.34525"></polygon>
            <polygon id="Fill-66" fill="#FFFFFF" points="7.263675 4.1963 7.195675 4.4058 6.975425 4.4058 7.153675 4.53505 7.085425 4.7443 7.263675 4.61505 7.441675 4.7443 7.373675 4.53505 7.551675 4.4058 7.331425 4.4058"></polygon>
            <polygon id="Fill-67" fill="#FFFFFF" points="7.33155 5.466325 7.2638 5.256825 7.19555 5.466325 6.9753 5.466325 7.15355 5.595825 7.08555 5.804825 7.2638 5.675575 7.44155 5.804825 7.3738 5.595825 7.5518 5.466325"></polygon>
        </g>
    </g>
</svg>