<?xml version="1.0" encoding="UTF-8"?>
<svg width="20px" height="14px" viewBox="0 0 20 14" version="1.1" xmlns="http://www.w3.org/2000/svg" xmlns:xlink="http://www.w3.org/1999/xlink">
    <!-- Generator: Sketch 51.1 (57501) - http://www.bohemiancoding.com/sketch -->
    <title>Right Arrow Icon</title>
    <desc>Created with Sketch.</desc>
    <defs></defs>
    <g id="Symbols" stroke="none" stroke-width="1" fill="none" fill-rule="evenodd">
        <g id="Buttons-/-Arrow" transform="translate(-22.000000, -25.000000)" fill="#4A90E2">
            <g id="Right-Arrow-Icon">
                <path d="M34.7446843,26.8037431 C34.3630405,26.4051628 34.3630405,25.7589363 34.7446843,25.360356 L34.8034952,25.2989353 C35.1851389,24.9003549 35.8039058,24.9003549 36.1855496,25.2989353 L41.7137672,31.0724838 C41.9549883,31.3244099 42.0437436,31.67527 41.9800331,32 C42.0437436,32.32473 41.9549883,32.6755901 41.7137672,32.9275162 L36.1855496,38.7010647 C35.8039058,39.0996451 35.1851389,39.0996451 34.8034952,38.7010647 L34.7446843,38.639644 C34.3630405,38.2410637 34.3630405,37.5948372 34.7446843,37.1962569 L38.8072468,32.9534061 L22.97726,32.9534061 C22.4375342,32.9534061 22,32.4964551 22,31.9327773 C22,31.3690996 22.4375342,30.9121485 22.97726,30.9121485 L38.6785143,30.9121485 L34.7446843,26.8037431 Z"></path>
            </g>
        </g>
    </g>
</svg>