<svg width="37" height="38" viewBox="0 0 37 38" fill="none" xmlns="http://www.w3.org/2000/svg">
<path d="M33.6137 18.8037L28.093 15.5008V24.6794H33.9167V19.3452C33.9167 19.1227 33.801 18.9161 33.6137 18.8037Z" fill="#1A237E"/>
<path d="M26.1459 6.99833H33.1188V6.12117C33.1188 5.36354 32.5214 4.75 31.7845 4.75H13.6183C12.8814 4.75 12.2832 5.36354 12.2832 6.12117V6.99833H19.2246H26.1459Z" fill="#9C9C9C"/>
<path d="M26.146 26.5383H31.7839C32.5208 26.5383 33.119 25.9247 33.119 25.1671V19.7624H26.146V26.5383Z" fill="#C4C4C4"/>
<path d="M12.2839 19.7632V25.1679C12.2839 25.9247 12.8813 26.539 13.619 26.539H19.2253V19.764H12.2839V19.7632Z" fill="#525252"/>
<path d="M26.146 6.99834H33.119V13.353H26.146V6.99834Z" fill="#F4F4F4"/>
<path d="M12.2839 6.99834H19.2253V13.353H12.2839V6.99834Z" fill="#ABACAD"/>
<path d="M19.2246 19.7632H26.1459V26.5382H19.2246V19.7632Z" fill="#787878"/>
<path d="M19.2246 6.99834H26.1459V13.353H19.2246V6.99834Z" fill="#C4C4C4"/>
<path d="M26.146 13.353H33.119V19.7624H26.146V13.353Z" fill="#D0D0D0"/>
<path d="M12.2839 13.353H19.2253V19.7624H12.2839V13.353Z" fill="#858585"/>
<path d="M19.2246 13.353H26.1459V19.7624H19.2246V13.353Z" fill="#9C9C9C"/>
<path d="M11.9025 33.25C12.2594 33.25 32.6148 33.25 32.6148 33.25C33.334 33.25 33.9167 32.6515 33.9167 31.9129V19.3467C33.9167 19.3467 33.8936 19.8677 32.567 20.6269C31.5649 21.2 11.3652 32.9064 11.3652 32.9064C11.3652 32.9064 11.5456 33.25 11.9025 33.25Z" fill="#E5E5E5"/>
<path d="M32.5901 33.2476C32.466 33.2476 12.0937 33.25 12.0937 33.25C11.3745 33.25 10.7917 32.6515 10.7917 31.9129V19.8447L33.4257 32.9563C33.2369 33.1115 32.9971 33.2476 32.5901 33.2476Z" fill="#D0D0D0"/>
<path d="M17.2041 26.9167H4.37902C3.66369 26.9167 3.08325 26.3205 3.08325 25.5859V12.4141C3.08325 11.6795 3.66369 11.0833 4.37902 11.0833H17.2041C17.9195 11.0833 18.4999 11.6795 18.4999 12.4141V25.5859C18.4999 26.3205 17.9195 26.9167 17.2041 26.9167Z" fill="#E5E5E5"/>
<path d="M10.7254 14.8311C8.31195 14.8311 6.85815 16.7248 6.85815 19.061C6.85815 21.3972 8.30655 23.29 10.7254 23.29C13.1451 23.29 14.5927 21.3964 14.5927 19.061C14.5927 16.7248 13.1389 14.8311 10.7254 14.8311ZM10.7254 21.8627C9.35642 21.8627 8.5378 20.6087 8.5378 19.061C8.5378 17.5133 9.36028 16.2593 10.7254 16.2593C12.0906 16.2593 12.9138 17.514 12.9138 19.061C12.9138 20.6079 12.0937 21.8627 10.7254 21.8627Z" fill="#9C9C9C"/>
</svg>
