<svg width="78" height="78" viewBox="0 0 78 78" fill="none" xmlns="http://www.w3.org/2000/svg">
<g clip-path="url(#clip0)">
<path d="M40.2539 14C27.343 14 16.8164 24.5262 16.8164 37.4375C16.8164 38.1776 16.8164 38.8357 16.8987 39.5757L18.5435 39.4111C18.4611 38.7534 18.4611 38.0952 18.4611 37.4375C18.4611 25.4308 28.2472 15.6447 40.2539 15.6447C52.2606 15.6447 62.0467 25.4308 62.0467 37.4375C62.0467 49.1972 52.7541 58.8191 41.0763 59.2303L42.8856 57.4209L41.7344 56.2697L37.8691 60.1349L41.7344 63.9998L42.8856 62.8486L40.912 60.875C53.9053 60.4638 64.1026 49.6907 63.6914 36.7798C63.2802 24.115 52.9183 14 40.2539 14Z" fill="#01303F" fill-opacity="0.5"/>
<path d="M55.4678 23.8683H25.8625V38.671H55.4678V23.8683ZM53.8231 37.0262H27.5073V25.5131H53.8231V37.0262Z" fill="#01303F" fill-opacity="0.5"/>
<path d="M40.6652 34.5592C42.4746 34.5592 43.9547 33.0791 43.9547 31.2697C43.9547 29.4603 42.4746 27.9802 40.6652 27.9802C38.8562 27.9802 37.3757 29.4603 37.3757 31.2697C37.3757 33.0791 38.8562 34.5592 40.6652 34.5592ZM40.6652 29.625C41.5699 29.625 42.3099 30.365 42.3099 31.2697C42.3099 32.1744 41.5699 32.9144 40.6652 32.9144C39.7605 32.9144 39.0205 32.1744 39.0205 31.2697C39.0205 30.365 39.7605 29.625 40.6652 29.625Z" fill="#01303F" fill-opacity="0.5"/>
<path d="M30.7968 28.8026H32.4416V27.1578H29.1521V30.4473H30.7968V28.8026Z" fill="#01303F" fill-opacity="0.5"/>
<path d="M32.4416 33.7369H30.7968V32.0922H29.1521V35.3816H32.4416V33.7369Z" fill="#01303F" fill-opacity="0.5"/>
<path d="M52.1784 32.0922H50.5336V33.7369H48.8889V35.3816H52.1784V32.0922Z" fill="#01303F" fill-opacity="0.5"/>
<path d="M50.5336 30.4473H52.1784V27.1578H48.8889V28.8026H50.5336V30.4473Z" fill="#01303F" fill-opacity="0.5"/>
<path d="M33.2639 30.4474H35.731V32.0921H33.2639V30.4474Z" fill="#01303F" fill-opacity="0.5"/>
<path d="M45.5994 30.4474H48.0665V32.0921H45.5994V30.4474Z" fill="#01303F" fill-opacity="0.5"/>
<path d="M19.2837 49.3619H20.9284V51.829H19.2837V49.3619Z" fill="#01303F" fill-opacity="0.5"/>
<path d="M55.4678 47.6348C55.4678 45.9901 54.07 44.5923 52.4253 44.5923C52.1783 44.5923 51.8494 44.5923 51.6029 44.6742L41.6522 47.5525C41.5698 47.5525 41.4052 47.6348 41.3233 47.5525L39.0204 47.1413C40.5828 46.2371 41.1587 44.263 40.3363 42.7006C39.7605 41.6317 38.6915 40.9736 37.458 40.9736H27.0961C26.6849 40.9736 26.2737 41.0559 25.8625 41.3028L24.2178 42.3718V41.1382H14.3494V55.1185H24.2178V53.0626L32.3592 56.4343C32.8527 56.6809 33.5108 56.6809 34.0039 56.5167L53.2476 50.5131C54.5631 50.1843 55.4678 49.033 55.4678 47.6348ZM22.573 53.4737H15.9941V42.7829H19.2836V47.7172H20.9283V42.7829H22.573V53.4737ZM33.5927 54.9538C33.4285 55.0362 33.1815 55.0362 33.0173 54.9538L24.2178 51.2532V44.263L26.6849 42.8653C26.7672 42.7829 26.9318 42.7829 27.0961 42.7829H37.3757C38.2804 42.7829 39.0204 43.523 39.0204 44.4277C39.0204 45.3324 38.2804 46.0724 37.3757 46.0724H31.6191V46.8948L31.4549 47.7172L40.9121 49.2796C41.241 49.3619 41.6522 49.2796 41.981 49.1973L51.9318 46.319C52.6718 46.0724 53.4119 46.5659 53.6588 47.306C53.9054 48.046 53.4942 48.7861 52.7541 49.033L33.5927 54.9538Z" fill="#01303F" fill-opacity="0.5"/>
</g>
<circle cx="39" cy="39" r="37.75" stroke="#01303F" stroke-opacity="0.5" stroke-width="2.5"/>
<defs>
<clipPath id="clip0">
<rect width="50" height="50" fill="white" transform="translate(14 14)"/>
</clipPath>
</defs>
</svg>
