<svg width="78" height="78" viewBox="0 0 78 78" fill="none" xmlns="http://www.w3.org/2000/svg">
<path d="M31.5502 32.0777C31.0633 32.5645 31.0633 33.3453 31.5502 33.8321L38.1272 40.4092C38.3661 40.648 38.6876 40.7766 38.9999 40.7766C39.3122 40.7766 39.6337 40.6572 39.8725 40.4092L46.4496 33.8321C46.9364 33.3453 46.9364 32.5645 46.4496 32.0777C45.9627 31.5908 45.1819 31.5908 44.6951 32.0777L40.24 36.5328V15.2401C40.24 14.5511 39.6888 14 38.9999 14C38.3109 14 37.7598 14.5511 37.7598 15.2401V36.5328L33.3047 32.0777C32.8178 31.5908 32.0279 31.5908 31.5502 32.0777Z" fill="#01303F" fill-opacity="0.5"/>
<path d="M59.273 42.2371L54.9556 26.6212C54.8546 26.263 54.6066 25.9782 54.2759 25.8221L54.1565 25.767C53.9911 25.6935 53.8166 25.6567 53.6421 25.6567H45.8617C45.1728 25.6567 44.6216 26.2079 44.6216 26.8968C44.6216 27.5858 45.1728 28.1369 45.8617 28.1369H52.8062L56.4529 41.3461H46.8078C46.1189 41.3461 45.5678 41.8972 45.5678 42.5862V43.7068C45.5678 45.3511 44.2358 46.683 42.5916 46.683H35.0225C33.3782 46.683 32.0463 45.3511 32.0463 43.7068V42.5862C32.0463 41.8972 31.4951 41.3461 30.8062 41.3461H21.5377L25.2028 28.1093H32.1473C32.8362 28.1093 33.3874 27.5582 33.3874 26.8693C33.3874 26.1803 32.8362 25.6292 32.1473 25.6292H24.3577C24.1832 25.6292 24.0087 25.6659 23.8433 25.7394L23.7239 25.7945C23.3932 25.9507 23.136 26.2354 23.0442 26.5937L18.7268 42.2095C18.6993 42.3198 18.6809 42.43 18.6809 42.5402V49.053C18.6809 53.9857 22.6951 57.9999 27.6279 57.9999H50.3719C55.3047 57.9999 59.3189 53.9857 59.3189 49.053V42.5678C59.3189 42.4484 59.3097 42.3381 59.273 42.2371ZM56.8387 49.053C56.8387 52.6171 53.936 55.5198 50.3719 55.5198H27.6279C24.0638 55.5198 21.1611 52.6171 21.1611 49.053V43.8262H29.5845C29.6488 46.7749 32.0738 49.154 35.0408 49.154H42.6099C45.5769 49.154 48.002 46.7749 48.0663 43.8262H56.8571V49.053H56.8387Z" fill="#01303F" fill-opacity="0.5"/>
<circle cx="39" cy="39" r="37.75" stroke="#01303F" stroke-opacity="0.5" stroke-width="2.5"/>
</svg>
