<svg width="37" height="38" viewBox="0 0 37 38" fill="none" xmlns="http://www.w3.org/2000/svg">
<path d="M22.3542 4.75H12.1361C11.3938 4.75 10.7917 5.36829 10.7917 6.13067V11.8774H22.3542V4.75Z" fill="#D4D4D4"/>
<path d="M10.7917 26.1678V31.8693C10.7917 32.6317 11.3938 33.25 12.1353 33.25H22.3542V26.1678H10.7917Z" fill="#646464"/>
<path d="M10.7917 11.8774H22.3542V19.004H10.7917V11.8774Z" fill="#B0B0B0"/>
<path d="M10.7917 19.004H22.3542V26.1685H10.7917V19.004Z" fill="#8A8A8A"/>
<path d="M32.5724 4.75H22.3542V11.8774H33.9167V6.13067C33.9167 5.36829 33.3147 4.75 32.5724 4.75Z" fill="#E5E5E5"/>
<path d="M22.3542 11.8774H33.9167V19.004H22.3542V11.8774Z" fill="#C4C4C4"/>
<path d="M22.3542 19.004H33.9167V26.1685H22.3542V19.004Z" fill="#9C9C9C"/>
<path d="M22.3542 26.1678V33.25H32.5732C33.3147 33.25 33.9167 32.6317 33.9167 31.8701V26.1685H22.3542V26.1678Z" fill="#787878"/>
<path d="M17.2041 26.9167H4.37902C3.66369 26.9167 3.08325 26.3205 3.08325 25.5859V12.4141C3.08325 11.6795 3.66369 11.0833 4.37902 11.0833H17.2041C17.9195 11.0833 18.4999 11.6795 18.4999 12.4141V25.5859C18.4999 26.3205 17.9195 26.9167 17.2041 26.9167Z" fill="#E5E5E5"/>
<path d="M7.55962 15.0417H9.39883L10.8912 18.0136L12.4683 15.0417H14.1865L11.8192 19L14.2404 22.9583H12.4282L10.8017 19.8471L9.18223 22.9583H7.34302L9.80429 18.9857L7.55962 15.0417Z" fill="#9C9C9C"/>
</svg>
