<svg width="78" height="78" viewBox="0 0 78 78" fill="none" xmlns="http://www.w3.org/2000/svg">
<g clip-path="url(#clip0)">
<path d="M36.2082 13C33.4494 13 31.2051 15.2443 31.2051 18.0031C31.2051 20.7619 33.4495 23.0063 36.2082 23.0063C38.967 23.0063 41.2114 20.7619 41.2114 18.0031C41.2114 15.2443 38.967 13 36.2082 13ZM36.2082 21.5413C34.2572 21.5413 32.67 19.9541 32.67 18.0031C32.67 16.0522 34.2573 14.4649 36.2082 14.4649C38.1592 14.4649 39.7464 16.0523 39.7464 18.0031C39.7464 19.954 38.1592 21.5413 36.2082 21.5413Z" fill="#01303F" fill-opacity="0.5"/>
<path d="M54.9651 43.4956C54.6762 43.2126 54.2124 43.2169 53.9292 43.5058L47.7813 49.7758L45.6102 47.5042C45.3307 47.2116 44.867 47.2012 44.5745 47.4808C44.2821 47.7603 44.2716 48.2239 44.5511 48.5164L47.245 51.335C47.5308 51.6341 48.0077 51.6372 48.2976 51.3417L54.9752 44.5315C55.2584 44.2425 55.2539 43.7788 54.9651 43.4956Z" fill="#01303F" fill-opacity="0.5"/>
<path d="M59.0063 48.3881C58.6098 48.3095 58.224 48.5669 58.1452 48.9638C57.3053 53.1897 54.3234 56.8003 50.3628 58.3871C49.9873 58.5375 49.8049 58.9638 49.9553 59.3394C50.1057 59.715 50.5322 59.8973 50.9076 59.7469C55.4673 57.9203 58.6642 53.8678 59.5819 49.2493C59.6609 48.8524 59.403 48.4669 59.0063 48.3881Z" fill="#01303F" fill-opacity="0.5"/>
<path d="M57.749 37.1011C55.7896 38.208 53.9415 38.2449 52.2556 37.2108C50.9153 36.3888 50.1642 35.1848 50.1343 35.1362C49.8875 34.7322 49.466 34.4839 48.9966 34.4613C47.6339 30.6459 45.3595 27.9957 43.6462 26.4179C42.5536 25.4116 41.1353 24.8575 39.6526 24.8575C38.9405 24.8575 33.4574 24.8575 32.7642 24.8575C31.1812 24.8575 29.6744 25.4524 28.5216 26.5324C26.1479 28.7562 22.1623 33.6144 22.1389 41.1642C22.134 42.7473 23.3908 44.0698 24.9405 44.1125C26.5594 44.1599 27.9043 42.8607 27.9043 41.231C27.9043 38.3975 28.7001 35.7302 30.2229 33.4103V60.4589C30.2229 61.8601 31.363 63.0002 32.7643 63.0002H34.3997C35.1068 63.0002 35.7474 62.7099 36.2085 62.2423C36.6697 62.7099 37.3102 63.0002 38.0173 63.0002H39.6528C41.054 63.0002 42.1941 61.8601 42.1941 60.4589V56.5974C43.5491 57.9587 45.1624 59.0327 46.945 59.7467C47.3208 59.8972 47.747 59.7145 47.8973 59.3392C48.0478 58.9637 47.8653 58.5374 47.4898 58.3869C42.774 56.4975 39.4567 51.8136 39.4567 46.4019V38.4179C42.4221 40.0602 45.2933 39.6597 47.6389 37.4708C48.177 36.9764 48.6155 36.4533 48.9119 35.9884C48.9165 35.9814 48.9225 35.9725 48.9265 35.9663C49.1369 36.2912 50.0157 37.5553 51.4901 38.4596C52.9727 39.3692 55.3699 40.0945 58.3965 38.4178V45.6884C58.3965 46.093 58.7244 46.4208 59.1289 46.4208C59.5334 46.4208 59.8613 46.093 59.8613 45.6884V38.3337C59.861 37.2511 58.6934 36.5679 57.749 37.1011ZM37.4962 26.3225L36.6192 27.3643C36.4044 27.6193 36.0124 27.6193 35.7976 27.3643L34.9204 26.3225H37.4962ZM42.1939 37.8934V33.5999C43.0377 34.9249 43.6425 36.3529 44.0005 37.8682C43.4134 37.997 42.8123 38.005 42.1939 37.8934ZM45.3773 37.3303C44.789 34.9795 43.661 32.8251 42.0163 30.9151C41.5734 30.4008 40.7287 30.7168 40.7287 31.393V37.4203C40.4131 37.2766 40.0174 37.0568 40.0066 37.0517C39.0759 36.6137 37.9911 37.2916 37.9911 38.3338V38.359V46.4021C37.9911 49.4683 38.9393 52.4007 40.7287 54.8755V60.4591H40.729C40.729 61.0525 40.2462 61.5354 39.6527 61.5354H38.0172C37.4238 61.5354 36.9408 61.0527 36.9408 60.4591V45.4063C36.9408 45.0017 36.6129 44.6738 36.2084 44.6738C35.8039 44.6738 35.476 45.0017 35.476 45.4063V60.459C35.476 61.0524 34.9932 61.5353 34.3996 61.5353H32.7642C32.1707 61.5353 31.6878 61.0526 31.6878 60.459V31.2491C31.6878 30.5753 30.8508 30.2604 30.4061 30.7645C27.8108 33.7055 26.4391 37.3249 26.4391 41.231C26.4391 42.0196 25.7952 42.6677 24.9807 42.6482C24.219 42.6272 23.6012 41.9637 23.6038 41.1689C23.6255 34.1691 27.3217 29.664 29.5231 27.6016C30.4035 26.7768 31.5544 26.3225 32.7641 26.3225H33.0054L34.6769 28.3077C35.477 29.2582 36.9406 29.257 37.7397 28.3077L39.4111 26.3225H39.6524C40.7665 26.3225 41.8324 26.7391 42.6538 27.4954C44.2763 28.9898 46.4416 31.519 47.6943 35.1726C47.1365 36.0143 46.2858 36.8176 45.3773 37.3303Z" fill="#01303F" fill-opacity="0.5"/>
</g>
<circle cx="39" cy="39" r="37.75" stroke="#01303F" stroke-opacity="0.5" stroke-width="2.5"/>
<defs>
<clipPath id="clip0">
<rect width="50" height="50" fill="white" transform="translate(16 13)"/>
</clipPath>
</defs>
</svg>
