<svg width="78" height="78" viewBox="0 0 78 78" fill="none" xmlns="http://www.w3.org/2000/svg">
<g clip-path="url(#clip0)">
<path d="M65.0002 52.8717V46.8136L62.8086 46.2704C62.6444 45.7803 62.45 45.306 62.2255 44.8527L63.3886 42.9228L59.1043 38.6393L57.1744 39.8012C56.7207 39.5771 56.2468 39.3823 55.7575 39.2177L55.2143 37.0277H49.1562L48.613 39.2185C48.1237 39.3823 47.6497 39.5771 47.1965 39.8024L45.2661 38.6401L40.9819 42.9235L41.4082 43.6306L36.167 42.7569V42.5501C37.9745 41.7171 39.4794 40.342 40.4727 38.6295H41.7734C43.098 38.6295 44.1762 37.5517 44.1762 36.2268C45.5008 36.2268 46.579 35.149 46.579 33.824V30.6203C46.579 29.5777 45.9067 28.6966 44.9771 28.365V25.6947C44.9771 18.6948 39.2823 13 32.2832 13C28.8922 13 25.7045 14.3199 23.3072 16.7187L22.9357 17.0887C20.8114 17.723 19.3476 19.6733 19.3476 21.9087V28.365C18.4176 28.6966 17.7457 29.5777 17.7457 30.6203V33.824C17.7457 35.149 18.8235 36.2268 20.1485 36.2268H22.8677C23.5955 39.0405 25.5641 41.3545 28.1577 42.5501V42.7569L21.9834 43.7859C19.9913 44.1183 18.3261 45.5039 17.6359 47.4006L15 54.648H42.0617C42.0906 54.709 42.1152 54.7723 42.145 54.8314L40.9819 56.7617L45.2661 61.0452L47.1965 59.8829C47.6497 60.107 48.1237 60.3018 48.613 60.4668L49.1562 62.6572H55.2143L55.7575 60.4668C56.2468 60.3025 56.7207 60.1078 57.1744 59.8829L59.1043 61.0452L63.3886 56.7617L62.2255 54.8314C62.45 54.3789 62.6444 53.9049 62.8086 53.4137L65.0002 52.8717ZM40.0746 53.0461H32.9633V48.1596C34.7427 47.7971 36.0852 46.2473 36.1525 44.3779L41.9248 45.3396C41.7926 45.6435 41.6682 45.9516 41.5619 46.2704L39.3707 46.8136V52.8717L40.0746 53.0461ZM29.7596 43.1187C30.5292 43.3181 31.3317 43.4351 32.1624 43.4351C32.9926 43.4351 33.7951 43.3181 34.5651 43.1187V44.236C34.5651 45.561 33.4869 46.6388 32.1624 46.6388C30.8374 46.6388 29.7596 45.561 29.7596 44.236V43.1187ZM41.7734 37.0277H41.2126C41.3057 36.7661 41.3863 36.4993 41.4571 36.2268H42.5744C42.5744 36.6691 42.2146 37.0277 41.7734 37.0277ZM44.9771 33.824C44.9771 34.2663 44.6173 34.6249 44.1762 34.6249V31.4212H42.5744V34.6249H41.7324C41.7547 34.3598 41.7734 34.0946 41.7734 33.824V29.8194H44.1762C44.6173 29.8194 44.9771 30.1784 44.9771 30.6203V33.824ZM20.1485 34.6249C19.707 34.6249 19.3476 34.2663 19.3476 33.824V30.6203C19.3476 30.1784 19.707 29.8194 20.1485 29.8194H22.5513V33.824C22.5513 34.0946 22.5697 34.3598 22.592 34.6249H20.1485ZM22.5513 26.6157V28.2175H20.9494V21.9087C20.9494 20.3327 22.0171 18.9647 23.5466 18.5826L23.7621 18.5298L24.4406 17.8513C26.5348 15.7551 29.3196 14.6018 32.2832 14.6018C38.3988 14.6018 43.3753 19.5779 43.3753 25.6947V28.2175H41.7734V26.6157H40.9725C38.0875 26.6157 35.3754 25.4929 33.3356 23.4531L32.1624 22.2787L30.9895 23.4531C28.9489 25.4929 26.2368 26.6157 23.3522 26.6157H22.5513ZM24.1531 33.824V28.1929C27.1644 28.002 29.9692 26.7385 32.1221 24.5856L32.1624 24.5453L32.2022 24.5856C34.3551 26.7385 37.1599 28.002 40.1716 28.1929V33.824C40.1716 34.9632 39.9287 36.0457 39.4978 37.0277H35.2186C34.887 36.0981 34.0059 35.4258 32.9633 35.4258H31.3614C30.0365 35.4258 28.9587 36.504 28.9587 37.8286C28.9587 39.1536 30.0365 40.2314 31.3614 40.2314H32.9633C34.0059 40.2314 34.887 39.5595 35.2186 38.6295H38.5545C37.0911 40.5704 34.7747 41.8332 32.1624 41.8332C27.7459 41.8332 24.1531 38.2404 24.1531 33.824ZM33.7642 37.8286C33.7642 38.2709 33.4044 38.6295 32.9633 38.6295H31.3614C30.9199 38.6295 30.5605 38.2709 30.5605 37.8286C30.5605 37.3867 30.9199 37.0277 31.3614 37.0277H32.9633C33.4044 37.0277 33.7642 37.3867 33.7642 37.8286ZM19.1415 47.9477C19.6342 46.5934 20.8243 45.6032 22.2466 45.3654L28.1718 44.3779C28.2391 46.2473 29.5816 47.7971 31.3614 48.1596V53.0461H22.7761L23.328 50.8373L21.7742 50.4498L21.1246 53.0461H17.2874L19.1415 47.9477ZM61.5384 52.0794L61.4093 52.5233C61.2091 53.2135 60.9393 53.8705 60.6061 54.4743L60.3836 54.8787L61.3702 56.5158L58.8584 59.0284L57.2213 58.0417L56.8169 58.2643C56.2116 58.5975 55.5546 58.8681 54.8659 59.0683L54.4224 59.1966L53.9617 61.0554H50.4088L49.9481 59.1958L49.5046 59.0675C48.8159 58.8673 48.1597 58.5967 47.5535 58.2635L47.1492 58.041L45.5121 59.0276L43.0002 56.515L43.9869 54.8779L43.7644 54.4736C43.4312 53.8697 43.1614 53.2135 42.9611 52.5225L42.8321 52.0786L40.9725 51.6191V48.0662L42.8321 47.6055L42.9611 47.162C43.1614 46.4714 43.4312 45.8148 43.7644 45.2109L43.9869 44.8062L43.0002 43.1691L45.5121 40.6569L47.1492 41.6435L47.5535 41.421C48.1589 41.0878 48.8159 40.8168 49.5046 40.6166L49.9481 40.4887L50.4088 38.6295H53.9617L54.4224 40.4895L54.8659 40.6174C55.5546 40.8176 56.2108 41.0886 56.8169 41.4218L57.2213 41.6443L58.8584 40.6576L61.3702 43.1699L60.3836 44.807L60.6061 45.2117C60.9393 45.8155 61.2091 46.4714 61.4093 47.1628L61.5384 47.6063L63.3984 48.0662V51.6191L61.5384 52.0794Z" fill="#01303F" fill-opacity="0.5"/>
<path d="M52.1855 41.9756C47.7691 41.9756 44.1763 45.5688 44.1763 49.9848C44.1763 54.4013 47.7691 57.9941 52.1855 57.9941C56.6015 57.9941 60.1947 54.4013 60.1947 49.9848C60.1947 45.5688 56.6015 41.9756 52.1855 41.9756ZM52.1855 56.3922C48.6525 56.3922 45.7781 53.5178 45.7781 49.9848C45.7781 46.4523 48.6525 43.5775 52.1855 43.5775C55.7181 43.5775 58.5929 46.4523 58.5929 49.9848C58.5929 53.5178 55.7181 56.3922 52.1855 56.3922Z" fill="#01303F" fill-opacity="0.5"/>
<path d="M52.1854 45.1793C49.5351 45.1793 47.3799 47.3345 47.3799 49.9849C47.3799 52.6352 49.5351 54.7904 52.1854 54.7904V53.1885C50.4185 53.1885 48.9817 51.7517 48.9817 49.9849C48.9817 48.218 50.4185 46.7812 52.1854 46.7812C53.9519 46.7812 55.3891 48.218 55.3891 49.9849H56.9909C56.9909 47.3345 54.8353 45.1793 52.1854 45.1793Z" fill="#01303F" fill-opacity="0.5"/>
<path d="M28.1577 30.7628C28.1577 31.2051 27.7991 31.5637 27.3568 31.5637C26.9141 31.5637 26.5559 31.2051 26.5559 30.7628C26.5559 30.3205 26.9141 29.9619 27.3568 29.9619C27.7991 29.9619 28.1577 30.3205 28.1577 30.7628Z" fill="#01303F" fill-opacity="0.5"/>
<path d="M37.7688 30.7628C37.7688 31.2051 37.4102 31.5637 36.9679 31.5637C36.5252 31.5637 36.167 31.2051 36.167 30.7628C36.167 30.3205 36.5252 29.9619 36.9679 29.9619C37.4102 29.9619 37.7688 30.3205 37.7688 30.7628Z" fill="#01303F" fill-opacity="0.5"/>
</g>
<circle cx="39" cy="39" r="37.75" stroke="#01303F" stroke-opacity="0.5" stroke-width="2.5"/>
<defs>
<clipPath id="clip0">
<rect width="50" height="50" fill="white" transform="translate(15 13)"/>
</clipPath>
</defs>
</svg>
