<svg width="38" height="38" viewBox="0 0 38 38" fill="none" xmlns="http://www.w3.org/2000/svg">
<path d="M33.4526 4.75H12.4639C11.7015 4.75 11.0833 5.36829 11.0833 6.13067V11.8774H34.8333V6.13067C34.8333 5.36829 34.215 4.75 33.4526 4.75Z" fill="#D0D0D0"/>
<path d="M11.0833 26.1678V31.8693C11.0833 32.6317 11.7015 33.25 12.4631 33.25H33.4526C34.215 33.25 34.8333 32.6317 34.8333 31.8693V26.1678H11.0833Z" fill="#787878"/>
<path d="M11.0833 11.8774H34.8333V19.004H11.0833V11.8774Z" fill="#C4C4C4"/>
<path d="M11.0833 19.004H34.8333V26.1685H11.0833V19.004Z" fill="#9C9C9C"/>
<path d="M17.6693 26.9167H4.49754C3.76287 26.9167 3.16675 26.3205 3.16675 25.5859V12.4141C3.16675 11.6795 3.76287 11.0833 4.49754 11.0833H17.6693C18.404 11.0833 19.0001 11.6795 19.0001 12.4141V25.5859C19.0001 26.3205 18.404 26.9167 17.6693 26.9167Z" fill="#E5E5E5"/>
<path d="M14.569 15.0417L13.3451 20.7923L11.9889 15.0417H10.2576L8.8587 20.9705L7.59757 15.0417H6.04907L7.90474 22.9583H9.76674L11.1229 16.8712L12.4798 22.9583H14.2618L16.1175 15.0417H14.569Z" fill="#9C9C9C"/>
</svg>
