<svg width="38" height="38" viewBox="0 0 38 38" fill="none" xmlns="http://www.w3.org/2000/svg">
<path d="M12.6667 22.5665V29.6915C12.6667 31.6587 17.4516 33.254 23.3542 33.254C29.2569 33.254 34.0417 31.6587 34.0417 29.6915V22.5665H12.6667Z" fill="#787878"/>
<path d="M12.6667 15.4415V22.5665C12.6667 24.5338 17.4516 26.129 23.3542 26.129C29.2569 26.129 34.0417 24.5338 34.0417 22.5665V15.4415H12.6667Z" fill="#9C9C9C"/>
<path d="M12.6667 8.31646V15.4415C12.6667 17.4087 17.4516 19.004 23.3542 19.004C29.2569 19.004 34.0417 17.4087 34.0417 15.4415V8.31646H12.6667Z" fill="#C4C4C4"/>
<path d="M23.3542 4.75396C21.9507 4.75396 20.561 4.84611 19.2643 5.02514C17.9676 5.20417 16.7895 5.46658 15.797 5.79739C14.8046 6.1282 14.0174 6.52093 13.4803 6.95315C12.9432 7.38537 12.6667 7.84863 12.6667 8.31646C12.6667 8.78429 12.9432 9.24755 13.4803 9.67977C14.0174 10.112 14.8046 10.5047 15.797 10.8355C16.7895 11.1663 17.9676 11.4287 19.2643 11.6078C20.561 11.7868 21.9507 11.879 23.3542 11.879C24.7577 11.879 26.1475 11.7868 27.4442 11.6078C28.7408 11.4287 29.919 11.1663 30.9114 10.8355C31.9039 10.5047 32.6911 10.112 33.2282 9.67977C33.7653 9.24755 34.0417 8.78429 34.0417 8.31646C34.0417 7.84863 33.7653 7.38537 33.2282 6.95315C32.6911 6.52093 31.9039 6.1282 30.9114 5.79739C29.919 5.46658 28.7408 5.20417 27.4442 5.02514C26.1475 4.84611 24.7577 4.75396 23.3542 4.75396Z" fill="#F4F4F4"/>
<path d="M20.1345 18.8385V13.5359C20.1322 12.8076 19.5432 12.2186 18.8148 12.2162H12.6667V15.4407C12.6667 17.0343 15.8065 18.3833 20.1345 18.8385Z" fill="#D0D0D0"/>
<path d="M12.6667 15.4415V22.5665C12.6667 24.1601 15.8065 25.5083 20.1345 25.9635V18.8385C15.8065 18.3833 12.6667 17.0343 12.6667 15.4415Z" fill="#D0D0D0"/>
<path d="M12.6667 22.5665V28.0535H18.556C19.3864 27.9997 20.0554 27.3505 20.1345 26.5216V25.9635C15.8065 25.5083 12.6667 24.1593 12.6667 22.5665Z" fill="#D0D0D0"/>
<path d="M17.6693 26.9167H4.49754C3.76287 26.9167 3.16675 26.3205 3.16675 25.5859V12.4141C3.16675 11.6795 3.76287 11.0833 4.49754 11.0833H17.6693C18.404 11.0833 19.0001 11.6795 19.0001 12.4141V25.5859C19.0001 26.3205 18.404 26.9167 17.6693 26.9167Z" fill="#E5E5E5"/>
<path d="M10.2307 15.0456H12.0246L14.9063 22.9623H13.2113L12.5764 21.0742H9.6116L8.98777 22.9623H7.30469L10.2307 15.0456ZM12.1964 19.8534L11.2741 16.9884C11.1981 16.7786 11.1411 16.5625 11.1031 16.3424H11.0699C11.035 16.568 10.9796 16.7897 10.9044 17.005L9.97102 19.8534H12.1964Z" fill="#9C9C9C"/>
</svg>
