<svg width="38" height="38" viewBox="0 0 38 38" fill="none" xmlns="http://www.w3.org/2000/svg">
<path d="M6.33325 19C6.33325 26.87 12.7133 33.25 20.5833 33.25C28.4532 33.25 34.8333 26.87 34.8333 19H20.5833H6.33325Z" fill="#9C9C9C"/>
<path d="M20.5833 4.75V19H34.8333C34.8333 11.13 28.4532 4.75 20.5833 4.75Z" fill="#D0D0D0"/>
<path d="M20.5833 4.75C12.7133 4.75 6.33325 11.13 6.33325 19H20.5833V4.75Z" fill="#787878"/>
<path d="M17.6693 26.9167H4.49754C3.76287 26.9167 3.16675 26.3205 3.16675 25.5859V12.4141C3.16675 11.6795 3.76287 11.0833 4.49754 11.0833H17.6693C18.404 11.0833 19.0001 11.6795 19.0001 12.4141V25.5859C19.0001 26.3205 18.404 26.9167 17.6693 26.9167Z" fill="#E5E5E5"/>
<path d="M11.6162 15.0512H7.91675V22.9678H9.51908V20.1804H11.3209C12.8061 20.1804 14.0102 18.9763 14.0102 17.4911V17.4452C14.0102 16.1231 12.9383 15.0512 11.6162 15.0512ZM12.3263 17.7001C12.3263 18.3801 11.7745 18.9319 11.0945 18.9319H9.51908V16.2996H11.0945C11.7745 16.2996 12.3263 16.8514 12.3263 17.5315V17.7001Z" fill="#9C9C9C"/>
</svg>
