<svg width="48" height="48" viewBox="0 0 48 48" fill="none" xmlns="http://www.w3.org/2000/svg">
<path d="M36.5834 17.1965C35.3605 17.1965 34.2445 17.6633 33.4041 18.4279C32.5639 17.6633 31.4477 17.1965 30.2248 17.1965C29.001 17.1965 27.884 17.6635 27.0431 18.4281C26.6978 18.1138 26.3039 17.8533 25.8772 17.6515C27.4195 15.759 28.3202 13.3571 28.3202 10.8159C28.3204 4.85195 23.4691 0 17.5059 0C11.5413 0 6.68855 4.85195 6.68855 10.8159C6.68855 14.9685 9.09459 18.7473 12.7752 20.5411V33.7333C12.7752 41.5998 19.1756 47.9998 27.0427 47.9998C34.9104 47.9998 41.3115 41.5998 41.3115 33.7333V21.9247C41.3115 19.3175 39.1905 17.1965 36.5834 17.1965ZM9.78673 10.8159C9.78673 6.56028 13.2495 3.09817 17.5059 3.09817C21.7608 3.09817 25.2222 6.56028 25.2222 10.8159C25.2222 13.2329 24.0803 15.4733 22.2342 16.9121V10.8159C22.2342 8.20768 20.1129 6.08564 17.5057 6.08564C14.8973 6.08564 12.775 8.20768 12.775 10.8159V16.9117C10.9287 15.4733 9.78673 13.2329 9.78673 10.8159ZM38.2133 33.7333C38.2133 39.8915 33.2021 44.9016 27.0427 44.9016C20.884 44.9016 15.8734 39.8915 15.8734 33.7333V19.5984C15.8761 19.5466 15.8761 19.4947 15.8734 19.4433V10.8159C15.8734 9.91601 16.6058 9.18381 17.5059 9.18381C18.4048 9.18381 19.1362 9.91601 19.1362 10.8159V21.9247V25.3226C19.1362 26.1781 19.8298 26.8717 20.6853 26.8717C21.5408 26.8717 22.2344 26.1781 22.2344 25.3226V21.9247C22.2344 21.0259 22.9655 20.2945 23.8642 20.2945C24.7629 20.2945 25.4938 21.0259 25.4938 21.9247V25.3226C25.4938 26.1781 26.1874 26.8717 27.0429 26.8717C27.8984 26.8717 28.592 26.1781 28.592 25.3226V21.9247C28.592 21.0259 29.3246 20.2945 30.2252 20.2945C31.1241 20.2945 31.8554 21.0259 31.8554 21.9247V25.3226C31.8554 26.1781 32.549 26.8717 33.4045 26.8717C34.26 26.8717 34.9536 26.1781 34.9536 25.3226V21.9247C34.9536 21.0259 35.685 20.2945 36.5839 20.2945C37.4825 20.2945 38.2137 21.0259 38.2137 21.9247V33.7333H38.2133Z" fill="#046AB5"/>
</svg>
