<svg width="47" height="47" viewBox="0 0 47 47" fill="none" xmlns="http://www.w3.org/2000/svg">
<path d="M17.9775 36.3878C17.2184 36.3878 16.6005 35.7699 16.6005 35.0108C16.6005 34.2503 15.9841 33.6339 15.2236 33.6339C14.463 33.6339 13.8466 34.2503 13.8466 35.0108C13.8466 36.8113 15.0048 38.3453 16.6152 38.9097V40.1152C16.6152 40.8758 17.2316 41.4922 17.9922 41.4922C18.7527 41.4922 19.3691 40.8758 19.3691 40.1152V38.8996C20.9641 38.3273 22.1083 36.8005 22.1083 35.0108C22.1083 32.7331 20.2552 30.88 17.9775 30.88C17.2184 30.88 16.6005 30.2621 16.6005 29.503C16.6005 28.7435 17.2184 28.1261 17.9775 28.1261C18.7366 28.1261 19.3544 28.7435 19.3544 29.503C19.3544 30.2636 19.9708 30.88 20.7314 30.88C21.4919 30.88 22.1083 30.2636 22.1083 29.503C22.1083 27.7133 20.9641 26.1865 19.3691 25.6138V23.5918C19.3691 22.8312 18.7527 22.2148 17.9922 22.2148C17.2316 22.2148 16.6152 22.8312 16.6152 23.5918V25.6038C15.0048 26.1682 13.8466 27.7022 13.8466 29.503C13.8466 31.7807 15.6998 33.6339 17.9775 33.6339C18.7366 33.6339 19.3544 34.2514 19.3544 35.0108C19.3544 35.7699 18.7366 36.3878 17.9775 36.3878Z" fill="#046AB5"/>
<path d="M5.61252 44.7513C8.47794 46.2853 12.4119 47 17.9922 47C22.5325 47 25.9498 46.5295 28.6048 45.5291C29.3632 46.4277 30.4966 47 31.7617 47H42.8691C45.1469 47 47 45.1469 47 42.8691C47 41.812 46.6002 40.8467 45.9447 40.1152C46.6005 39.3837 47 38.4184 47 37.3613C47 36.3042 46.6002 35.3389 45.9447 34.6074C46.6005 33.8759 47 32.9106 47 31.8535C47 30.7964 46.6002 29.8311 45.9447 29.0996C46.6005 28.3681 47 27.4028 47 26.3457C47 24.068 45.1469 22.2148 42.8691 22.2148H31.7617C31.6276 22.2148 31.4949 22.2217 31.3641 22.2346C29.9821 20.5607 28.3627 19.1572 26.5784 18.0808C27.2321 17.35 27.6309 16.3857 27.6309 15.3301C27.6309 13.6845 26.6634 12.261 25.2674 11.5972L27.5631 4.55793C27.6997 4.13839 27.6273 3.67905 27.3684 3.32226C27.1091 2.96511 26.695 2.75391 26.2539 2.75391H21.8864C21.3177 1.15105 19.7872 0 17.9922 0C16.1968 0 14.6656 1.15105 14.0973 2.75391H9.73047C9.28941 2.75391 8.87525 2.96511 8.616 3.32226C8.3571 3.67905 8.28467 4.13839 8.42129 4.55793L10.7169 11.5972C9.32097 12.261 8.35352 13.6845 8.35352 15.3301C8.35352 16.3865 8.75262 17.3514 9.40739 18.0826C3.88272 21.417 0 27.7499 0 34.6074C0 39.3446 1.88829 42.7573 5.61252 44.7513ZM44.2461 31.8535C44.2461 32.6126 43.6283 33.2305 42.8691 33.2305H31.7617C31.0026 33.2305 30.3848 32.6126 30.3848 31.8535C30.3848 31.0944 31.0026 30.4766 31.7617 30.4766H42.8691C43.6283 30.4766 44.2461 31.0944 44.2461 31.8535ZM44.2461 37.3613C44.2461 38.1204 43.6283 38.7383 42.8691 38.7383H31.7617C31.0026 38.7383 30.3848 38.1204 30.3848 37.3613C30.3848 36.6022 31.0026 35.9844 31.7617 35.9844H42.8691C43.6283 35.9844 44.2461 36.6022 44.2461 37.3613ZM42.8691 44.2461H31.7617C31.0026 44.2461 30.3848 43.6283 30.3848 42.8691C30.3848 42.11 31.0026 41.4922 31.7617 41.4922H42.8691C43.6283 41.4922 44.2461 42.11 44.2461 42.8691C44.2461 43.6283 43.6283 44.2461 42.8691 44.2461ZM44.2461 26.3457C44.2461 27.1048 43.6283 27.7227 42.8691 27.7227H31.7617C31.0026 27.7227 30.3848 27.1048 30.3848 26.3457C30.3848 25.5866 31.0026 24.9688 31.7617 24.9688H42.8691C43.6283 24.9688 44.2461 25.5866 44.2461 26.3457ZM23.4606 16.707H12.5242C12.512 16.7067 12.4998 16.707 12.4876 16.707H12.4844C11.7253 16.707 11.1074 16.0892 11.1074 15.3301C11.1074 14.5724 11.7227 13.9556 12.4801 13.9535H12.484C12.4872 13.9535 12.4905 13.9531 12.4937 13.9531H23.4903C23.4935 13.9531 23.4971 13.9535 23.5004 13.9535H23.5043C24.2616 13.9556 24.877 14.5724 24.877 15.3301C24.877 16.0892 24.2591 16.707 23.5 16.707H23.4957C23.4842 16.707 23.4724 16.7067 23.4606 16.707ZM15.2383 5.50781C15.9988 5.50781 16.6152 4.89141 16.6152 4.13086C16.6152 3.37174 17.2331 2.75391 17.9922 2.75391C18.7513 2.75391 19.3691 3.37174 19.3691 4.13086V6.88477C19.3691 7.64532 19.9855 8.26172 20.7461 8.26172C21.5066 8.26172 22.123 7.64532 22.123 6.88477V5.50781H24.3567L22.5006 11.1992H13.4837L11.6277 5.50781H15.2383ZM12.753 19.4609H23.226C25.3112 20.3319 27.2117 21.7035 28.7966 23.4738C28.0759 24.2179 27.6309 25.2305 27.6309 26.3457C27.6309 27.4028 28.0307 28.3681 28.6862 29.0996C28.0307 29.8311 27.6309 30.7964 27.6309 31.8535C27.6309 32.9106 28.0307 33.8759 28.6862 34.6074C28.0307 35.3389 27.6309 36.3042 27.6309 37.3613C27.6309 38.4184 28.0307 39.3837 28.6862 40.1152C28.0307 40.8467 27.6309 41.812 27.6309 42.8691C27.6309 42.8975 27.6323 42.9254 27.633 42.9534C25.3037 43.833 22.2012 44.2461 17.9922 44.2461C12.8831 44.2461 9.36221 43.6351 6.91238 42.3234C4.07528 40.8044 2.75391 38.3528 2.75391 34.6074C2.75391 28.1128 6.85321 21.9237 12.753 19.4609Z" fill="#046AB5"/>
</svg>
