<svg width="48" height="48" viewBox="0 0 48 48" fill="none" xmlns="http://www.w3.org/2000/svg">
<path d="M43.048 30.4688C43.8247 30.4688 44.4543 29.8392 44.4543 29.0625C44.4543 28.2858 43.8247 27.6562 43.048 27.6562C42.2714 27.6562 41.6418 28.2858 41.6418 29.0625C41.6418 29.8392 42.2714 30.4688 43.048 30.4688Z" fill="#046AB5"/>
<path d="M47.9931 16.8779C47.8594 14.3004 45.7318 12.2406 43.1495 12.1885C43.1157 12.1879 43.0821 12.1875 43.0484 12.1875C40.5844 12.1875 38.4853 14.0037 38.1439 16.4507C38.1123 16.6774 38.0963 16.9091 38.0963 17.1394C38.0963 17.916 38.7259 18.5456 39.5025 18.5456C40.2791 18.5456 40.9088 17.916 40.9088 17.1394C40.9088 17.0385 40.9157 16.9374 40.9295 16.8392C41.0788 15.7691 42.0105 14.9763 43.0928 15.0005C44.2081 15.023 45.1267 15.9116 45.1845 17.0237C45.2153 17.6179 45.0076 18.1819 44.5996 18.6116C44.1911 19.0418 43.6402 19.2787 43.0481 19.2787C42.2715 19.2787 41.6419 19.9084 41.6419 20.685V23.9062C41.6419 24.6829 42.2715 25.3125 43.0481 25.3125C43.8248 25.3125 44.4544 24.6829 44.4544 23.9062V21.8856C45.2799 21.6397 46.0383 21.181 46.6392 20.548C47.5835 19.5533 48.0644 18.2499 47.9931 16.8779Z" fill="#046AB5"/>
<path d="M1.40625 27.6562C0.629625 27.6562 0 28.2859 0 29.0625C0 29.8391 0.629625 30.4688 1.40625 30.4688C2.18288 30.4688 2.8125 29.8391 2.8125 29.0625C2.8125 28.2859 2.18288 27.6562 1.40625 27.6562Z" fill="#046AB5"/>
<path d="M1.40625 12.1879C0.629625 12.1879 0 12.8175 0 13.5941V23.9066C0 24.6832 0.629625 25.3129 1.40625 25.3129C2.18288 25.3129 2.8125 24.6832 2.8125 23.9066V13.5941C2.8125 12.8175 2.18288 12.1879 1.40625 12.1879Z" fill="#046AB5"/>
<path d="M7.03125 30.4688C7.80788 30.4688 8.4375 29.8391 8.4375 29.0625C8.4375 28.2859 7.80788 27.6562 7.03125 27.6562C6.25462 27.6562 5.625 28.2859 5.625 29.0625C5.625 29.8391 6.25462 30.4688 7.03125 30.4688Z" fill="#046AB5"/>
<path d="M7.03125 25.3129C7.80788 25.3129 8.4375 24.6832 8.4375 23.9066V13.5941C8.4375 12.8175 7.80788 12.1879 7.03125 12.1879C6.25462 12.1879 5.625 12.8175 5.625 13.5941V23.9066C5.625 24.6832 6.25462 25.3129 7.03125 25.3129Z" fill="#046AB5"/>
<path d="M31.5 30.9375H29.1562V29.4756C31.9667 27.7403 33.8438 24.6323 33.8438 21.0938V10.1851C33.8438 8.17931 33.156 6.21019 31.9073 4.64044C30.6587 3.07078 28.8946 1.95788 26.9402 1.50684C22.6071 0.507 18.1553 0 13.7086 0H9.9375C9.16087 0 8.53125 0.629625 8.53125 1.40625V2.14584C8.53125 6.59334 10.6207 10.7378 14.1562 13.3823V21.0938C14.1562 24.6322 16.0333 27.7402 18.8438 29.4756V30.9375H16.5C10.5552 30.9375 5.71875 35.774 5.71875 41.7188V46.5938C5.71875 47.3704 6.34837 48 7.125 48H40.875C41.6516 48 42.2812 47.3704 42.2812 46.5938V41.7188C42.2812 35.774 37.4448 30.9375 31.5 30.9375ZM11.3633 2.8125H13.7086C17.9428 2.8125 22.1819 3.29522 26.3078 4.24744C29.0888 4.88925 31.0312 7.33087 31.0312 10.1851V11.25H16.002C13.2574 9.27178 11.5618 6.18019 11.3633 2.8125ZM16.9688 21.0938V14.0625H31.0312V21.0938C31.0312 24.9708 27.877 28.125 24 28.125C20.123 28.125 16.9688 24.9708 16.9688 21.0938ZM26.3438 30.6548V33.2812C26.3438 34.5736 25.2923 35.625 24 35.625C22.7077 35.625 21.6562 34.5736 21.6562 33.2812V30.6548C22.4077 30.8391 23.1925 30.9375 24 30.9375C24.8075 30.9375 25.5923 30.8391 26.3438 30.6548ZM39.4688 45.1875H8.53125V41.7188C8.53125 37.3248 12.106 33.75 16.5 33.75H18.8661C19.1038 36.3742 21.315 38.4375 24 38.4375C26.685 38.4375 28.8963 36.3742 29.1339 33.75H31.5C35.894 33.75 39.4688 37.3248 39.4688 41.7188V45.1875Z" fill="#046AB5"/>
</svg>
