<svg width="48" height="49" viewBox="0 0 48 49" fill="none" xmlns="http://www.w3.org/2000/svg">
<g clip-path="url(#clip0_148_199)">
<path d="M45.124 39.0186C47.009 36.4521 47.9993 33.4697 47.9993 30.3264C47.9993 25.2946 45.3899 20.6231 40.9876 17.7078C40.5815 13.2248 38.4883 9.0673 34.9884 5.86396C31.1183 2.32181 25.9837 0.370972 20.5306 0.370972C15.0775 0.370972 9.94297 2.32181 6.07279 5.86405C2.15629 9.44858 -0.000608872 14.2278 -0.000608872 19.3212C-0.000608872 23.2388 1.26229 26.953 3.66304 30.1309L0.136078 38.8556C-0.149952 39.5632 0.0213286 40.3735 0.569296 40.9045C0.926483 41.2508 1.39692 41.4335 1.87486 41.4335C2.13014 41.4334 2.38757 41.3813 2.63076 41.2741L12.6902 36.8397C13.9531 37.3225 15.2542 37.6836 16.5852 37.9226C17.9486 40.165 19.8934 42.0639 22.2576 43.4461C24.897 44.9891 27.9445 45.8137 31.0792 45.8374C31.1253 45.8408 31.1712 45.8444 31.2182 45.8444C33.3854 45.8444 35.4852 45.4701 37.4716 44.7307L45.368 48.2116C45.6112 48.3188 45.8686 48.371 46.1239 48.371C46.6018 48.371 47.0724 48.1883 47.4295 47.842C47.9775 47.3108 48.1487 46.5006 47.8627 45.7931L45.124 39.0186ZM41.2389 39.4137L42.6554 42.9176L38.2644 40.9821C37.7898 40.7728 37.2496 40.7695 36.7723 40.9732C35.0513 41.7074 33.2085 42.0837 31.294 42.0935C31.2687 42.0924 31.2438 42.0896 31.2181 42.0896C27.523 42.0896 24.0322 40.6457 21.5933 38.2437C24.6855 38.0956 27.7164 37.306 30.4187 35.9337C31.342 35.4647 31.7103 34.3362 31.2413 33.4128C30.7725 32.4896 29.6438 32.1214 28.7205 32.5902C26.2329 33.8536 23.4008 34.5214 20.5306 34.5214C18.0365 34.5214 15.6353 34.0365 13.394 33.0802C12.9169 32.8766 12.3765 32.8797 11.9019 33.0891L5.34332 35.9802L7.5515 30.5178C7.81334 29.8701 7.69344 29.1304 7.24016 28.5988C4.95651 25.9196 3.74938 22.7115 3.74938 19.3212C3.74938 10.9397 11.2774 4.12096 20.5306 4.12096C29.7838 4.12096 37.3118 10.9397 37.3118 19.3212C37.3118 22.0283 36.516 24.6859 35.0101 27.0067C34.4464 27.8754 34.6938 29.0365 35.5625 29.6001C36.431 30.1639 37.5922 29.9164 38.156 29.0477C39.4923 26.9881 40.3851 24.7141 40.798 22.3524C42.9945 24.5034 44.2493 27.3366 44.2493 30.3264C44.2493 32.9444 43.316 35.4232 41.5502 37.4946C41.097 38.0263 40.9771 38.766 41.2389 39.4137ZM22.3118 28.9647C22.3118 30.0002 21.4724 30.8397 20.4369 30.8397C19.4013 30.8397 18.5619 30.0002 18.5619 28.9647C18.5619 27.9291 19.4013 27.0897 20.4369 27.0897C21.4724 27.0897 22.3118 27.9291 22.3118 28.9647ZM27.5602 14.9164C27.5614 14.9425 27.5619 14.9686 27.5619 14.9949C27.5626 17.8174 25.8855 20.3575 23.2895 21.4657C22.7523 21.6951 22.405 22.2361 22.405 22.8439V22.9647C22.405 24.0002 21.5656 24.8397 20.53 24.8397C19.4945 24.8397 18.655 24.0002 18.655 22.9647V22.844C18.655 20.7317 19.8962 18.8371 21.8171 18.017C23.0127 17.5066 23.7908 16.3458 23.8115 15.0496C23.811 15.0316 23.8107 15.0135 23.8107 14.9954C23.8107 13.1865 22.339 11.7148 20.53 11.7148C18.7211 11.7147 17.2494 13.1864 17.2494 14.9953C17.2494 16.0308 16.4099 16.8703 15.3744 16.8703C14.3388 16.8703 13.4994 16.0308 13.4994 14.9953C13.4994 11.1186 16.6533 7.96471 20.53 7.96471C24.3804 7.96471 27.518 11.076 27.5602 14.9164Z" fill="#046AB5"/>
</g>
<defs>
<clipPath id="clip0_148_199">
<rect width="48" height="48" fill="white" transform="translate(0 0.370972)"/>
</clipPath>
</defs>
</svg>
