<svg width="47" height="48" viewBox="0 0 47 48" fill="none" xmlns="http://www.w3.org/2000/svg">
<path d="M35.4336 21.5625C36.4476 21.5625 37.2695 20.723 37.2695 19.6875C37.2695 18.652 36.4476 17.8125 35.4336 17.8125C34.4196 17.8125 33.5977 18.652 33.5977 19.6875C33.5977 20.723 34.4196 21.5625 35.4336 21.5625Z" fill="#046AB5"/>
<path d="M39.6562 3.75H37.2695V1.875C37.2695 0.839438 36.4476 0 35.4336 0C34.4196 0 33.5977 0.839438 33.5977 1.875V3.75H25.2441V1.875C25.2441 0.839438 24.4222 0 23.4082 0C22.3942 0 21.5723 0.839438 21.5723 1.875V3.75H13.3105V1.875C13.3105 0.839438 12.4886 0 11.4746 0C10.4606 0 9.63867 0.839438 9.63867 1.875V3.75H7.34375C3.29441 3.75 0 7.1145 0 11.25V40.5C0 44.6355 3.29441 48 7.34375 48H21.3887C22.4027 48 23.2246 47.1606 23.2246 46.125C23.2246 45.0894 22.4027 44.25 21.3887 44.25H7.34375C5.31908 44.25 3.67188 42.5677 3.67188 40.5V11.25C3.67188 9.18225 5.31908 7.5 7.34375 7.5H9.63867V9.375C9.63867 10.4106 10.4606 11.25 11.4746 11.25C12.4886 11.25 13.3105 10.4106 13.3105 9.375V7.5H21.5723V9.375C21.5723 10.4106 22.3942 11.25 23.4082 11.25C24.4222 11.25 25.2441 10.4106 25.2441 9.375V7.5H33.5977V9.375C33.5977 10.4106 34.4196 11.25 35.4336 11.25C36.4476 11.25 37.2695 10.4106 37.2695 9.375V7.5H39.6562C41.6809 7.5 43.3281 9.18225 43.3281 11.25V21.9375C43.3281 22.9731 44.1501 23.8125 45.1641 23.8125C46.1781 23.8125 47 22.9731 47 21.9375V11.25C47 7.1145 43.7056 3.75 39.6562 3.75Z" fill="#046AB5"/>
<path d="M35.8926 25.3125C29.7679 25.3125 24.7852 30.4012 24.7852 36.6562C24.7852 42.9113 29.7679 48 35.8926 48C42.0173 48 47 42.9113 47 36.6562C47 30.4012 42.0173 25.3125 35.8926 25.3125ZM35.8926 44.25C31.7927 44.25 28.457 40.8435 28.457 36.6562C28.457 32.469 31.7927 29.0625 35.8926 29.0625C39.9925 29.0625 43.3281 32.469 43.3281 36.6562C43.3281 40.8435 39.9925 44.25 35.8926 44.25Z" fill="#046AB5"/>
<path d="M38.5547 34.7812H37.7285V32.8125C37.7285 31.7769 36.9066 30.9375 35.8926 30.9375C34.8786 30.9375 34.0566 31.7769 34.0566 32.8125V36.6562C34.0566 37.6918 34.8786 38.5312 35.8926 38.5312H38.5547C39.5687 38.5312 40.3906 37.6918 40.3906 36.6562C40.3906 35.6207 39.5687 34.7812 38.5547 34.7812Z" fill="#046AB5"/>
<path d="M27.4473 21.5625C28.4612 21.5625 29.2832 20.723 29.2832 19.6875C29.2832 18.652 28.4612 17.8125 27.4473 17.8125C26.4333 17.8125 25.6113 18.652 25.6113 19.6875C25.6113 20.723 26.4333 21.5625 27.4473 21.5625Z" fill="#046AB5"/>
<path d="M19.4609 29.7188C20.4749 29.7188 21.2969 28.8793 21.2969 27.8438C21.2969 26.8082 20.4749 25.9688 19.4609 25.9688C18.447 25.9688 17.625 26.8082 17.625 27.8438C17.625 28.8793 18.447 29.7188 19.4609 29.7188Z" fill="#046AB5"/>
<path d="M11.4746 21.5625C12.4886 21.5625 13.3105 20.723 13.3105 19.6875C13.3105 18.652 12.4886 17.8125 11.4746 17.8125C10.4606 17.8125 9.63867 18.652 9.63867 19.6875C9.63867 20.723 10.4606 21.5625 11.4746 21.5625Z" fill="#046AB5"/>
<path d="M11.4746 29.7188C12.4886 29.7188 13.3105 28.8793 13.3105 27.8438C13.3105 26.8082 12.4886 25.9688 11.4746 25.9688C10.4606 25.9688 9.63867 26.8082 9.63867 27.8438C9.63867 28.8793 10.4606 29.7188 11.4746 29.7188Z" fill="#046AB5"/>
<path d="M11.4746 37.875C12.4886 37.875 13.3105 37.0355 13.3105 36C13.3105 34.9645 12.4886 34.125 11.4746 34.125C10.4606 34.125 9.63867 34.9645 9.63867 36C9.63867 37.0355 10.4606 37.875 11.4746 37.875Z" fill="#046AB5"/>
<path d="M19.4609 37.875C20.4749 37.875 21.2969 37.0355 21.2969 36C21.2969 34.9645 20.4749 34.125 19.4609 34.125C18.447 34.125 17.625 34.9645 17.625 36C17.625 37.0355 18.447 37.875 19.4609 37.875Z" fill="#046AB5"/>
<path d="M19.4609 21.5625C20.4749 21.5625 21.2969 20.723 21.2969 19.6875C21.2969 18.652 20.4749 17.8125 19.4609 17.8125C18.447 17.8125 17.625 18.652 17.625 19.6875C17.625 20.723 18.447 21.5625 19.4609 21.5625Z" fill="#046AB5"/>
</svg>
